<!DOCTYPE svg PUBLIC "-//W3C//DTD SVG 1.1//EN" "http://www.w3.org/Graphics/SVG/1.1/DTD/svg11.dtd">
<!-- Uploaded to: SVG Repo, www.svgrepo.com, Transformed by: SVG Repo Mixer Tools -->
<svg width="800px" height="800px" viewBox="0 0 24 24" fill="none" xmlns="http://www.w3.org/2000/svg" stroke="#000000" stroke-width="0.00024000000000000003">
<g id="SVGRepo_bgCarrier" stroke-width="0"/>
<g id="SVGRepo_tracerCarrier" stroke-linecap="round" stroke-linejoin="round" stroke="#CCCCCC" stroke-width="0.144"/>
<g id="SVGRepo_iconCarrier"> <path d="M4.54601 20.891L5 20H5L4.54601 20.891ZM4.10899 20.454L5 20H5L4.10899 20.454ZM4.04798 16.4656L5.03199 16.6437H5.03199L4.04798 16.4656ZM6.46558 14.048L6.64372 15.032H6.64372L6.46558 14.048ZM8.52682 14.4682L8.11418 15.3791L8.52682 14.4682ZM7.59797 14.0722L7.86945 13.1098L7.59797 14.0722ZM6.71575 14.0172L6.63976 13.0201L6.71575 14.0172ZM7.20361 14.0026L7.2779 13.0054L7.20361 14.0026ZM12.1655 15.9033C12.7101 15.8119 13.0776 15.2963 12.9862 14.7516C12.8948 14.2069 12.3792 13.8394 11.8345 13.9308L12.1655 15.9033ZM14 22C14.5523 22 15 21.5523 15 21C15 20.4477 14.5523 20 14 20V22ZM17.29 17.2929C16.8994 17.6834 16.8994 18.3166 17.29 18.7071C17.6805 19.0976 18.3137 19.0976 18.7042 18.7071L17.29 17.2929ZM15.0916 14.7507C14.954 15.2856 15.2759 15.8308 15.8108 15.9684C16.3457 16.1061 16.8908 15.7841 17.0285 15.2493L15.0916 14.7507ZM17.9971 20C17.4448 20 16.9971 20.4477 16.9971 21C16.9971 21.5523 17.4448 22 17.9971 22V20ZM18.0071 22C18.5594 22 19.0071 21.5523 19.0071 21C19.0071 20.4477 18.5594 20 18.0071 20V22ZM14 7C14 8.65685 12.6569 10 11 10V12C13.7614 12 16 9.76142 16 7H14ZM11 10C9.34315 10 8 8.65685 8 7H6C6 9.76142 8.23858 12 11 12V10ZM8 7C8 5.34315 9.34315 4 11 4V2C8.23858 2 6 4.23858 6 7H8ZM11 4C12.6569 4 14 5.34315 14 7H16C16 4.23858 13.7614 2 11 2V4ZM11 14C10.2634 14 9.5665 13.8413 8.93945 13.5573L8.11418 15.3791C8.99535 15.7783 9.97313 16 11 16V14ZM5 19.4V17.6841H3V19.4H5ZM5.6 20C5.30347 20 5.14122 19.9992 5.02463 19.9897C4.91972 19.9811 4.94249 19.9707 5 20L4.09202 21.782C4.36344 21.9203 4.63318 21.9644 4.86177 21.9831C5.07869 22.0008 5.33648 22 5.6 22V20ZM3 19.4C3 19.6635 2.99922 19.9213 3.01695 20.1382C3.03562 20.3668 3.07969 20.6366 3.21799 20.908L5 20C5.0293 20.0575 5.01887 20.0803 5.0103 19.9754C5.00078 19.8588 5 19.6965 5 19.4H3ZM5 20H5L3.21799 20.908C3.40973 21.2843 3.7157 21.5903 4.09202 21.782L5 20ZM5 17.6841C5 17.0048 5.00403 16.7982 5.03199 16.6437L3.06398 16.2874C2.99597 16.6631 3 17.0921 3 17.6841H5ZM6.63976 13.0201C6.52094 13.0291 6.40482 13.0427 6.28744 13.064L6.64372 15.032C6.68018 15.0254 6.72646 15.0192 6.79174 15.0143L6.63976 13.0201ZM5.03199 16.6437C5.18058 15.8229 5.82295 15.1806 6.64372 15.032L6.28744 13.064C4.6459 13.3612 3.36116 14.6459 3.06398 16.2874L5.03199 16.6437ZM8.93945 13.5573C8.46856 13.344 8.10859 13.1772 7.86945 13.1098L7.3265 15.0347C7.32059 15.033 7.33175 15.0359 7.36967 15.0506C7.40596 15.0646 7.45555 15.0851 7.52413 15.1147C7.66296 15.1747 7.84942 15.2591 8.11418 15.3791L8.93945 13.5573ZM6.79174 15.0143C7.02942 14.9962 7.06668 14.9952 7.12932 14.9999L7.2779 13.0054C7.03995 12.9877 6.85217 13.0039 6.63976 13.0201L6.79174 15.0143ZM7.86945 13.1098C7.65428 13.0491 7.50084 13.022 7.2779 13.0054L7.12932 14.9999C7.18838 15.0043 7.2134 15.0079 7.22908 15.0106C7.24475 15.0134 7.26949 15.0186 7.3265 15.0347L7.86945 13.1098ZM11.8345 13.9308C11.5638 13.9762 11.285 14 11 14V16C11.3964 16 11.7858 15.967 12.1655 15.9033L11.8345 13.9308ZM14 20H5.6V22H14V20ZM18.997 15.5C18.997 15.6732 18.9516 15.8053 18.6776 16.0697C18.5239 16.218 18.3429 16.3653 18.0919 16.574C17.8536 16.7723 17.5741 17.0087 17.29 17.2929L18.7042 18.7071C18.92 18.4913 19.1405 18.3033 19.3709 18.1116C19.5887 17.9305 19.8452 17.7223 20.0665 17.5087C20.5426 17.0493 20.997 16.4314 20.997 15.5H18.997ZM17.997 14.5C18.5493 14.5 18.997 14.9477 18.997 15.5H20.997C20.997 13.8431 19.6539 12.5 17.997 12.5V14.5ZM17.0285 15.2493C17.1396 14.8177 17.5325 14.5 17.997 14.5V12.5C16.5978 12.5 15.4246 13.457 15.0916 14.7507L17.0285 15.2493ZM17.9971 22H18.0071V20H17.9971V22Z" fill="#ffffff"/> </g>
</svg>